<svg id="svg" xmlns="http://www.w3.org/2000/svg" xmlns:xlink="http://www.w3.org/1999/xlink" width="400" height="400" viewBox="0, 0, 400,400"><g id="svgg"><path id="path0" d="M189.603 1.504 C 179.793 5.433,174.437 12.453,168.287 29.441 C 160.689 50.433,160.030 56.196,159.465 106.625 L 158.984 149.579 143.359 158.061 C 134.766 162.727,127.383 166.688,126.953 166.863 C 126.523 167.038,125.483 165.741,124.640 163.980 C 117.819 149.721,95.913 149.825,88.775 164.148 C 86.869 167.974,86.719 169.023,86.719 178.501 L 86.719 188.727 76.397 194.298 L 66.075 199.869 63.971 196.186 C 57.200 184.330,39.126 183.354,30.710 194.389 C 27.289 198.874,26.576 201.975,26.544 212.500 L 26.517 221.484 14.744 227.734 C -1.400 236.305,0.000 233.220,-0.000 260.218 C -0.000 285.855,0.241 286.879,6.277 286.872 C 7.921 286.870,38.444 275.821,83.984 258.743 L 158.984 230.618 159.404 260.426 L 159.823 290.234 162.771 304.688 C 164.393 312.637,165.903 319.895,166.127 320.818 C 166.490 322.308,162.987 324.624,134.621 341.649 C 117.068 352.185,102.097 361.477,101.353 362.300 C 100.160 363.618,100.000 365.741,100.000 380.278 L 100.000 396.762 102.058 398.381 C 105.081 400.758,106.945 400.576,145.298 394.157 C 174.298 389.303,180.151 388.522,180.665 389.441 C 188.375 403.218,214.878 403.029,219.636 389.163 C 219.822 388.620,232.024 390.357,254.688 394.152 C 293.053 400.576,294.919 400.759,297.942 398.381 L 300.000 396.762 300.000 380.278 C 300.000 365.741,299.840 363.618,298.647 362.300 C 297.903 361.477,282.932 352.185,265.379 341.649 C 237.013 324.624,233.510 322.308,233.873 320.818 C 234.097 319.895,235.607 312.637,237.229 304.688 L 240.177 290.234 240.596 260.426 L 241.016 230.618 316.016 258.743 C 361.556 275.821,392.079 286.870,393.723 286.872 C 399.759 286.879,400.000 285.855,400.000 260.218 C 400.000 233.220,401.400 236.305,385.256 227.734 L 373.483 221.484 373.456 212.500 C 373.424 201.975,372.711 198.874,369.290 194.389 C 360.874 183.354,342.800 184.330,336.029 196.186 L 333.925 199.869 323.603 194.298 L 313.281 188.727 313.281 178.501 C 313.281 169.023,313.131 167.974,311.225 164.148 C 304.087 149.825,282.181 149.721,275.360 163.980 C 274.517 165.741,273.477 167.038,273.047 166.863 C 272.617 166.688,265.234 162.727,256.641 158.061 L 241.016 149.579 240.534 107.016 C 239.966 56.812,239.232 50.537,231.493 29.688 C 225.740 14.190,220.326 6.728,211.795 2.538 C 205.968 -0.323,195.397 -0.816,189.603 1.504 M206.386 15.824 C 211.360 18.863,214.425 24.060,219.006 37.222 C 226.482 58.700,226.536 59.720,226.550 181.485 L 226.563 284.455 217.568 331.095 C 206.537 388.294,207.292 385.937,200.000 385.938 C 192.722 385.938,193.516 388.423,182.446 331.033 L 173.438 284.331 173.455 181.424 C 173.473 76.286,173.741 65.087,176.543 52.236 C 183.322 21.144,193.923 8.209,206.386 15.824 M194.198 40.960 C 188.812 42.958,186.207 46.421,182.789 56.123 C 180.550 62.481,179.966 64.996,180.670 65.255 C 184.755 66.762,193.262 69.491,193.385 69.334 C 193.469 69.228,194.506 66.152,195.690 62.500 C 198.201 54.754,199.434 52.972,201.079 54.715 C 201.672 55.345,203.126 58.848,204.310 62.500 C 205.494 66.152,206.531 69.228,206.615 69.334 C 206.738 69.490,215.196 66.778,219.293 65.270 C 220.623 64.780,215.233 49.020,212.711 46.022 C 208.538 41.063,200.124 38.763,194.198 40.960 M159.375 190.431 L 159.375 215.238 87.695 242.105 C 48.271 256.881,15.576 269.135,15.039 269.335 C 14.282 269.617,14.070 266.827,14.096 256.920 L 14.130 244.141 86.557 204.923 C 126.392 183.353,159.072 165.687,159.180 165.665 C 159.287 165.643,159.375 176.788,159.375 190.431 M320.139 208.594 L 385.873 244.141 385.905 256.920 C 385.930 266.826,385.718 269.617,384.961 269.335 C 384.424 269.135,351.729 256.881,312.305 242.105 L 240.625 215.238 240.625 190.399 L 240.625 165.561 247.515 169.304 C 251.304 171.363,283.985 189.043,320.139 208.594 M110.460 168.945 C 114.270 172.373,113.584 174.048,106.836 177.788 L 100.781 181.144 100.781 176.268 C 100.781 168.409,105.715 164.676,110.460 168.945 M296.038 168.330 C 298.795 169.756,299.219 170.855,299.219 176.573 L 299.219 181.144 293.164 177.788 C 286.416 174.048,285.730 172.373,289.540 168.945 C 291.826 166.888,293.028 166.774,296.038 168.330 M50.068 201.783 C 51.203 202.654,53.125 205.632,53.125 206.519 C 53.125 206.918,41.765 213.281,41.052 213.281 C 40.817 213.281,40.625 211.332,40.625 208.949 C 40.625 202.373,45.761 198.476,50.068 201.783 M357.457 202.699 C 359.231 204.472,360.471 213.281,358.948 213.281 C 358.235 213.281,346.875 206.918,346.875 206.519 C 346.875 201.743,353.948 199.190,357.457 202.699 M172.576 354.688 C 174.271 363.496,175.773 371.565,175.915 372.619 L 176.172 374.535 145.117 379.715 L 114.063 384.895 114.063 377.690 L 114.063 370.486 141.602 354.067 C 156.748 345.036,169.220 337.878,169.318 338.160 C 169.415 338.441,170.882 345.879,172.576 354.688 M261.203 355.852 L 285.938 370.689 285.938 377.792 L 285.938 384.895 254.883 379.715 L 223.828 374.535 224.085 372.619 C 224.227 371.565,225.721 363.577,227.406 354.867 C 229.090 346.157,230.469 338.666,230.469 338.221 C 230.469 337.776,231.819 338.222,233.469 339.214 C 235.119 340.205,247.600 347.692,261.203 355.852 " stroke="none" fill="#000000" fill-rule="evenodd"></path></g></svg>
