<?xml version="1.0" encoding="utf-8"?>
<!-- Generator: Adobe Illustrator 16.0.0, SVG Export Plug-In . SVG Version: 6.00 Build 0)  -->
<!DOCTYPE svg PUBLIC "-//W3C//DTD SVG 1.1//EN" "http://www.w3.org/Graphics/SVG/1.1/DTD/svg11.dtd">
<svg version="1.1" id="Layer_1" xmlns="http://www.w3.org/2000/svg" x="0px" y="0px"
     width="64px" height="64px" viewBox="0 0 64 64" enable-background="new 0 0 64 64" xml:space="preserve">
<g>
	<rect x="29" y="43" width="2" height="4"/>
  <path d="M32,15c-5.972,0-9,2.019-9,6h2c0-1.862,0.796-4,7-4c4.252,0,7,2.355,7,6c0,2.765-3.933,5.345-5.447,6.105
		C33.367,29.198,29,31.457,29,38v1h2v-1c0-5.259,3.312-7.036,3.447-7.105C34.715,30.761,41,27.565,41,23C41,18.29,37.299,15,32,15z"
  />
</g>
</svg>
