<?xml version="1.0" encoding="iso-8859-1"?>
<!-- Generator: Adobe Illustrator 19.0.0, SVG Export Plug-In . SVG Version: 6.00 Build 0)  -->
<svg version="1.1" id="Capa_1" xmlns="http://www.w3.org/2000/svg" x="0px" y="0px"
     viewBox="0 0 512 512" style="enable-background:new 0 0 512 512;" xml:space="preserve">
<g>
	<g>
		<path d="M410.338,68.199h-70.359c-4.216,0-7.634,3.418-7.634,7.634c0,4.216,3.418,7.634,7.634,7.634h70.359
			c11.735,0,21.248,9.513,21.248,21.248v18.449H80.414v-18.449c0-11.735,9.514-21.248,21.248-21.248h202.688
			c4.216,0,7.634-3.418,7.634-7.634c0-4.216-3.418-7.634-7.634-7.634H101.662c-20.167,0-36.517,16.348-36.517,36.517V234.52
			c0,20.167,16.349,36.517,36.517,36.517h308.675c20.168,0,36.517-16.349,36.517-36.517V104.715
			C446.855,84.547,430.506,68.199,410.338,68.199z M431.586,234.52c0,11.717-9.532,21.248-21.248,21.248H101.662
			c-11.716,0-21.248-9.532-21.248-21.248v-96.087h351.172V234.52z"/>
	</g>
</g>
  <g>
	<g>
		<path d="M106.37,287.045c-20.485,0-37.153,16.667-37.153,37.153s16.668,37.153,37.153,37.153s37.153-16.667,37.153-37.153
			S126.856,287.045,106.37,287.045z M106.37,346.083c-12.067,0-21.885-9.818-21.885-21.885c0-12.067,9.818-21.885,21.885-21.885
			s21.885,9.818,21.885,21.885C128.255,336.265,118.438,346.083,106.37,346.083z"/>
	</g>
</g>
  <g>
	<g>
		<path d="M405.63,287.045c-20.486,0-37.153,16.667-37.153,37.153s16.667,37.153,37.153,37.153s37.153-16.667,37.153-37.153
			S426.116,287.045,405.63,287.045z M405.63,346.083c-12.067,0-21.885-9.818-21.885-21.885c0-12.067,9.818-21.885,21.885-21.885
			c12.067,0,21.885,9.818,21.885,21.885C427.515,336.265,417.698,346.083,405.63,346.083z"/>
	</g>
</g>
  <g>
	<g>
		<path d="M481.504,104.843h-7.167v-32.33C474.338,32.53,441.809,0,401.825,0H110.176C70.192,0,37.662,32.53,37.662,72.512v32.33
			h-7.167c-14.571,0-26.426,11.854-26.426,26.426v78.454c0.001,14.572,11.855,26.427,26.426,26.427h7.167v140.776
			c-9.803,1.637-17.307,10.155-17.307,20.417v45.074c0,11.427,9.296,20.723,20.722,20.723h8.289v26.458
			c0,12.352,10.049,22.401,22.401,22.401h55.97c12.352,0,22.401-10.049,22.401-22.401v-26.458h12.734
			c3.361,12.302,14.629,21.375,27.983,21.375h130.293c13.354,0,24.622-9.071,27.982-21.375h17.82v26.458
			c0,12.352,10.049,22.401,22.401,22.401h55.97c12.352,0,22.401-10.049,22.401-22.401v-26.458h8.29
			c11.427,0,20.722-9.296,20.722-20.723v-45.074c0-11.427-9.296-20.723-20.722-20.723h-1.672v-140.47h7.166
			c14.572,0,26.427-11.854,26.427-26.427V131.27C507.931,116.697,496.077,104.843,481.504,104.843z M30.496,220.883v-0.001
			c-6.152,0-11.158-5.005-11.158-11.158V131.27c0-6.153,5.006-11.158,11.158-11.158h7.167v100.771H30.496z M127.738,496.732H71.767
			c-3.932,0-7.132-3.199-7.132-7.132v-26.458h70.234v26.458h0.001C134.87,493.532,131.67,496.732,127.738,496.732z M321.146,469.248
			H190.854c-4.754,0-8.951-2.427-11.419-6.106h153.131C330.097,466.821,325.9,469.248,321.146,469.248z M452.452,489.599
			c0,3.933-3.2,7.132-7.132,7.132h-55.97c-3.932,0-7.132-3.199-7.132-7.132v-26.458h70.234V489.599z M476.009,391.889
			c3.012,0,5.454,2.442,5.454,5.454v45.075c0,3.013-2.442,5.455-5.455,5.455h-15.923H57H41.079c-3.012,0-5.454-2.442-5.454-5.454
			v-45.075c0-3.013,2.442-5.455,5.455-5.455h4.217h48.711h28.142c4.216,0,7.634-3.418,7.634-7.634s-3.418-7.634-7.634-7.634H94.009
			H52.931V228.516V112.477V72.512c0-31.615,25.63-57.244,57.245-57.244h291.649c31.616,0,57.244,25.629,57.244,57.244v39.964
			v116.039v148.104H347.101v-56.053c0-21.325-17.287-38.612-38.612-38.612H203.511c-21.325,0-38.613,17.287-38.613,38.612v56.053
			h-7.12c-4.216,0-7.634,3.418-7.634,7.634c0,4.216,3.418,7.634,7.634,7.634h308.925H476.009z M331.833,320.567v56.053H186.787
			h-6.619v-56.053c0-12.871,10.473-23.343,23.344-23.343H308.49C321.361,297.224,331.833,307.696,331.833,320.567z M492.663,209.723
			c0,6.153-5.006,11.158-11.159,11.158h-7.166V120.11h7.166c6.153,0,11.159,5.005,11.159,11.158V209.723z"/>
	</g>
</g>
  <g>
</g>
  <g>
</g>
  <g>
</g>
  <g>
</g>
  <g>
</g>
  <g>
</g>
  <g>
</g>
  <g>
</g>
  <g>
</g>
  <g>
</g>
  <g>
</g>
  <g>
</g>
  <g>
</g>
  <g>
</g>
  <g>
</g>
</svg>
