<?xml version="1.0" encoding="iso-8859-1"?>
<!-- Generator: Adobe Illustrator 19.0.0, SVG Export Plug-In . SVG Version: 6.00 Build 0)  -->
<svg version="1.1" id="Capa_1" xmlns="http://www.w3.org/2000/svg" x="0px" y="0px"
     viewBox="0 0 480 480" style="enable-background:new 0 0 480 480;" xml:space="preserve">
<g>
	<g>
		<path d="M290.529,184.408l-22.208-7.4l-22.664-22.664c-1.5-1.5-3.534-2.344-5.656-2.344h-72c-2.122,0-4.156,0.844-5.656,2.344
			l-22.4,22.4l-29.856,7.464c-3.584,0.882-6.099,4.101-6.088,7.792v40c0,4.418,3.582,8,8,8h17.472
			c4.335,12.442,17.935,19.014,30.376,14.68c6.877-2.396,12.284-7.802,14.68-14.68h50.944c4.335,12.442,17.935,19.014,30.376,14.68
			c6.877-2.396,12.284-7.802,14.68-14.68h17.472c4.418,0,8-3.582,8-8v-40C296.002,188.555,293.797,185.497,290.529,184.408z
			 M152.001,240c-4.418,0-8-3.582-8-8s3.582-8,8-8s8,3.582,8,8S156.419,240,152.001,240z M248.001,240c-4.418,0-8-3.582-8-8
			s3.582-8,8-8s8,3.582,8,8S252.419,240,248.001,240z M280.001,224h-9.368c-0.096-0.272-0.24-0.512-0.344-0.8
			c-0.176-0.448-0.384-0.872-0.584-1.304c-0.414-0.886-0.882-1.746-1.4-2.576c-0.24-0.392-0.472-0.8-0.744-1.16
			c-0.671-0.945-1.409-1.84-2.208-2.68c-0.168-0.176-0.312-0.376-0.48-0.544c-0.989-0.977-2.06-1.869-3.2-2.664
			c-0.344-0.192-0.696-0.376-1.024-0.584c-0.87-0.547-1.773-1.038-2.704-1.472c-0.44-0.2-0.888-0.376-1.344-0.552
			c-0.939-0.363-1.901-0.663-2.88-0.896c-0.44-0.112-0.864-0.24-1.312-0.32c-2.903-0.595-5.897-0.595-8.8,0
			c-0.448,0.08-0.872,0.208-1.312,0.32c-0.979,0.233-1.941,0.533-2.88,0.896c-0.456,0.176-0.896,0.352-1.336,0.552
			c-0.935,0.432-1.841,0.923-2.712,1.472c-0.328,0.208-0.68,0.392-1,0.608c-1.14,0.795-2.211,1.687-3.2,2.664
			c-0.168,0.168-0.312,0.368-0.48,0.544c-0.799,0.84-1.537,1.735-2.208,2.68c-0.264,0.376-0.504,0.8-0.744,1.16
			c-0.518,0.83-0.986,1.69-1.4,2.576c-0.208,0.432-0.408,0.856-0.584,1.304c-0.104,0.264-0.248,0.504-0.344,0.8h-50.776
			c-0.096-0.272-0.24-0.512-0.344-0.8c-0.176-0.448-0.384-0.872-0.584-1.304c-0.414-0.886-0.882-1.746-1.4-2.576
			c-0.24-0.392-0.472-0.8-0.744-1.16c-0.671-0.945-1.409-1.84-2.208-2.68c-0.168-0.176-0.312-0.376-0.48-0.544
			c-0.989-0.977-2.06-1.869-3.2-2.664c-0.32-0.216-0.672-0.4-1-0.608c-0.87-0.547-1.773-1.038-2.704-1.472
			c-0.44-0.2-0.888-0.376-1.344-0.552c-0.939-0.363-1.901-0.663-2.88-0.896c-0.44-0.112-0.864-0.24-1.312-0.32
			c-2.903-0.595-5.897-0.595-8.8,0c-0.448,0.08-0.872,0.208-1.312,0.32c-0.979,0.233-1.941,0.533-2.88,0.896
			c-0.456,0.176-0.896,0.352-1.336,0.552c-0.935,0.432-1.841,0.923-2.712,1.472c-0.328,0.208-0.68,0.392-1,0.608
			c-1.14,0.795-2.211,1.687-3.2,2.664c-0.168,0.168-0.312,0.368-0.48,0.544c-0.799,0.84-1.537,1.735-2.208,2.68
			c-0.264,0.376-0.504,0.8-0.744,1.16c-0.518,0.83-0.986,1.69-1.4,2.576c-0.208,0.432-0.408,0.856-0.584,1.304
			c-0.104,0.264-0.248,0.504-0.344,0.8h-9.432v-25.776l25.944-6.488c1.405-0.352,2.688-1.08,3.712-2.104L171.313,168h65.376
			l21.656,21.656c0.88,0.877,1.951,1.539,3.128,1.936l18.528,6.176V224z"/>
	</g>
</g>
  <g>
	<g>
		<path d="M437.657,178.344l-24-24c-3.124-3.123-8.188-3.123-11.312,0l-42.344,42.344V88c-0.026-22.08-17.92-39.974-40-40h-88V32
			c0-17.673-14.327-32-32-32c-17.673,0-32,14.327-32,32v16h-88c-22.08,0.026-39.974,17.92-40,40v352c0.026,22.08,17.92,39.974,40,40
			h240c22.08-0.026,39.974-17.92,40-40V267.312l77.656-77.656C440.78,186.532,440.78,181.468,437.657,178.344z M320.001,64
			c13.255,0,24,10.745,24,24v124.688l-16,16V88c0-4.418-3.582-8-8-8h-38.456l-6-16H320.001z M250.345,341.656
			c0.678,0.652,1.466,1.177,2.328,1.552c0.2,0.096,0.392,0.176,0.6,0.256c0.854,0.327,1.758,0.506,2.672,0.528h0.056
			c0.655-0.001,1.308-0.081,1.944-0.24l32-8c1.405-0.352,2.688-1.08,3.712-2.104l18.344-18.336V368h-56c-4.418,0-8,3.582-8,8v56
			h-160V96h24.456l-7.952,21.192c-1.551,4.137,0.546,8.748,4.683,10.299c0.899,0.337,1.852,0.51,2.813,0.509h176
			c4.418,0.003,8.002-3.577,8.005-7.995c0.001-0.961-0.172-1.914-0.509-2.813L287.545,96h24.456v148.688l-53.656,53.656
			c-1.024,1.024-1.752,2.307-2.104,3.712l-8,32C247.558,336.783,248.357,339.668,250.345,341.656z M312.001,395.312V432h-36.688
			L312.001,395.312z M264.001,420.688V384h36.688L264.001,420.688z M131.497,90.8L141.545,64h34.456c4.418,0,8-3.582,8-8V32
			c0-8.837,7.163-16,16-16s16,7.163,16,16v24c0,4.418,3.582,8,8,8h34.456l10.048,26.8l7.952,21.2H123.545l7.952-21.192V90.8z
			 M344.001,440c0,13.255-10.745,24-24,24h-240c-13.255,0-24-10.745-24-24V88c0-13.255,10.745-24,24-24h44.456l-6,16H80.001
			c-4.418,0-8,3.582-8,8v352c0,4.418,3.582,8,8,8h240c4.418,0,8-3.582,8-8V299.312l16-16V440z M346.345,258.344l-32,32l-30.4,30.4
			l-16.912,4.224l4.224-16.912l54.4-54.4l32-32l26.344-26.344L396.689,208L346.345,258.344z M408.001,196.688L395.313,184
			l12.688-12.688L420.689,184L408.001,196.688z"/>
	</g>
</g>
  <g>
	<g>
		<rect x="112.001" y="272" width="136" height="16"/>
	</g>
</g>
  <g>
	<g>
		<rect x="112.001" y="304" width="112" height="16"/>
	</g>
</g>
  <g>
	<g>
		<rect x="112.001" y="336" width="112" height="16"/>
	</g>
</g>
  <g>
	<g>
		<rect x="112.001" y="368" width="112" height="16"/>
	</g>
</g>
  <g>
</g>
  <g>
</g>
  <g>
</g>
  <g>
</g>
  <g>
</g>
  <g>
</g>
  <g>
</g>
  <g>
</g>
  <g>
</g>
  <g>
</g>
  <g>
</g>
  <g>
</g>
  <g>
</g>
  <g>
</g>
  <g>
</g>
</svg>
