<?xml version="1.0" encoding="iso-8859-1"?>
<!-- Generator: Adobe Illustrator 19.0.0, SVG Export Plug-In . SVG Version: 6.00 Build 0)  -->
<svg version="1.1" id="Capa_1" xmlns="http://www.w3.org/2000/svg" x="0px" y="0px"
     viewBox="0 0 511.998 511.998" style="enable-background:new 0 0 511.998 511.998;" xml:space="preserve">
<g>
	<g>
		<path d="M427.526,31.491c2.65,2.65,5.295,5.294,5.701,5.7c-0.297-0.297-1.93-1.93-5.721-5.721
			c-9.986-9.985-5.014-5.013-0.021-0.02C407.488,11.463,382.655,0,359.35,0h-13.351c-4.142,0-7.5,3.357-7.5,7.5s3.358,7.5,7.5,7.5
			h13.351c19.08,0,40.594,10.122,57.55,27.077c16.958,16.956,27.081,38.472,27.081,57.555v346.899l-7.581,9.38v-67.638
			c0-4.143-3.358-7.5-7.5-7.5c-4.142,0-7.5,3.357-7.5,7.5v86.197l-7.126,8.817V122.662c0-45.726-37.201-82.927-82.927-82.927H83.812
			l9.916-7.123h53.256c4.142,0,7.5-3.357,7.5-7.5s-3.358-7.5-7.5-7.5h-32.375L118.246,15h192.833c4.142,0,7.5-3.357,7.5-7.5
			s-3.358-7.5-7.5-7.5H115.831c-1.57,0-3.101,0.493-4.375,1.409L56.142,41.145c-1.935,1.391-3.125,3.708-3.125,6.091v205.286
			c0,4.143,3.358,7.5,7.5,7.5c4.142,0,7.5-3.357,7.5-7.5V54.735h263.33c37.455,0,67.927,30.472,67.927,67.927v38.354
			c-14.161-0.915-26.224-10.588-30.902-14.867c-1.742-1.592-4.234-2.283-6.549-1.817l-52.148,10.55
			c-2.512,0.486-4.976,1.54-7.408,2.323c-20.226,6.51-36.982,20.361-47.181,39.002l-25.689,46.955
			c-1.005,1.837-1.196,4.011-0.527,5.995s2.137,3.6,4.049,4.453l55.732,24.882c0.986,0.44,2.026,0.652,3.055,0.652
			c2.251,0,4.448-1.015,5.905-2.874l5.971-7.616v87.873c0,4.143,3.358,7.5,7.5,7.5c4.142,0,7.5-3.357,7.5-7.5V168.385l38.096-7.707
			c3.999,20.447,21.368,36.156,42.596,37.646v254.305c-48.696-0.305-72.913-10.922-80.692-15.196v-51.961c0-4.143-3.358-7.5-7.5-7.5
			c-4.142,0-7.5,3.357-7.5,7.5v56.117c0,2.309,1.063,4.488,2.881,5.909c1.042,0.814,26.035,19.738,92.811,20.135v29.365H68.017
			V285.526c0-4.143-3.358-7.5-7.5-7.5c-4.142,0-7.5,3.357-7.5,7.5v218.972c0,4.143,3.358,7.5,7.5,7.5h346.257
			c2.244,0,4.417-1.05,5.833-2.785l44.707-55.314c1.079-1.335,1.667-2.999,1.667-4.715V99.632
			C458.981,76.323,447.517,51.489,427.526,31.491z M303.579,244.347l-14.16,18.062l-42.96-19.18l21.787-39.822
			c7.79-14.236,20.251-25.06,35.333-30.772V244.347z M399.274,183.278c-6.738-0.699-12.853-3.518-17.676-7.77
			c0.009,0.004,4.823,4.252,0,0c0.009,0.004,0.018,0.008,0.026,0.012c-1.396-1.226-2.684-2.572-3.849-4.02
			c-0.099-0.123-0.814-1.06-1.066-1.411c-0.068-0.095-0.137-0.19-0.203-0.286c6.553,3.26,14.311,5.859,22.768,6.241V183.278z"/>
	</g>
</g>
  <g>
	<g>
		<path d="M253.188,117.799H102.733c-4.142,0-7.5,3.357-7.5,7.5c0,4.143,3.358,7.5,7.5,7.5h150.455c4.142,0,7.5-3.357,7.5-7.5
			S257.33,117.799,253.188,117.799z"/>
	</g>
</g>
  <g>
	<g>
		<path d="M253.188,143.686H102.733c-4.142,0-7.5,3.357-7.5,7.5s3.358,7.5,7.5,7.5h150.455c4.142,0,7.5-3.357,7.5-7.5
			S257.33,143.686,253.188,143.686z"/>
	</g>
</g>
  <g>
	<g>
		<path d="M131.496,365.013h-28.763c-4.142,0-7.5,3.357-7.5,7.5s3.358,7.5,7.5,7.5h28.763c4.142,0,7.5-3.357,7.5-7.5
			S135.638,365.013,131.496,365.013z"/>
	</g>
</g>
  <g>
	<g>
		<path d="M233.646,401.228H102.733c-4.142,0-7.5,3.357-7.5,7.5s3.358,7.5,7.5,7.5h130.913c4.142,0,7.5-3.357,7.5-7.5
			S237.788,401.228,233.646,401.228z"/>
	</g>
</g>
  <g>
	<g>
		<path d="M233.646,430.255H102.733c-4.142,0-7.5,3.357-7.5,7.5s3.358,7.5,7.5,7.5h130.913c4.142,0,7.5-3.357,7.5-7.5
			S237.788,430.255,233.646,430.255z"/>
	</g>
</g>
  <g>
</g>
  <g>
</g>
  <g>
</g>
  <g>
</g>
  <g>
</g>
  <g>
</g>
  <g>
</g>
  <g>
</g>
  <g>
</g>
  <g>
</g>
  <g>
</g>
  <g>
</g>
  <g>
</g>
  <g>
</g>
  <g>
</g>
</svg>
