<svg width="21" height="20" viewBox="0 0 21 20" fill="none" xmlns="http://www.w3.org/2000/svg">
<path fill-rule="evenodd" clip-rule="evenodd" d="M14.55 11H7.1L6 13H18V15H6C4.48 15 3.52 13.37 4.25 12.03L5.6 9.59L2 2H0V0H3.27L7.53 9H14.55L18.42 2L20.16 2.96L16.3 9.97C15.96 10.59 15.3 11 14.55 11ZM6 16C4.9 16 4.01 16.9 4.01 18C4.01 19.1 4.9 20 6 20C7.1 20 8 19.1 8 18C8 16.9 7.1 16 6 16ZM16 16C14.9 16 14.01 16.9 14.01 18C14.01 19.1 14.9 20 16 20C17.1 20 18 19.1 18 18C18 16.9 17.1 16 16 16Z" fill="#828282"/>
</svg>
