<svg id="svg" xmlns="http://www.w3.org/2000/svg" xmlns:xlink="http://www.w3.org/1999/xlink" width="400" height="400" viewBox="0, 0, 400,400"><g id="svgg"><path id="path0" d="M178.662 2.191 L 176.563 4.382 176.563 33.441 L 176.563 62.500 156.199 62.500 C 129.196 62.500,130.469 61.574,130.469 81.211 L 130.469 93.750 116.552 93.750 L 102.636 93.750 100.537 95.941 L 98.438 98.132 98.438 111.566 L 98.438 125.000 88.818 125.000 C 79.298 125.000,79.177 125.023,77.099 127.191 L 75.000 129.382 75.000 164.125 L 75.000 198.867 55.983 210.385 C 34.598 223.336,33.594 224.152,33.594 228.585 C 33.594 230.357,42.110 260.328,53.516 298.698 C 64.473 335.559,73.438 365.838,73.438 365.985 C 73.438 366.133,71.805 365.762,69.809 365.161 C 48.572 358.770,24.833 365.742,4.473 384.350 C -2.708 390.913,-1.067 400.006,7.296 399.996 C 10.838 399.991,11.553 399.596,21.013 392.411 C 40.316 377.748,52.887 376.160,75.000 385.593 C 100.505 396.473,113.600 396.377,137.500 385.136 C 164.843 372.274,169.914 372.389,200.391 386.555 C 224.157 397.602,238.618 397.362,262.891 385.514 C 288.930 372.805,296.935 372.592,321.329 383.962 C 346.946 395.902,371.705 390.871,395.431 368.905 C 402.736 362.143,401.131 353.125,392.624 353.125 C 388.999 353.125,388.269 353.559,378.653 361.423 C 362.325 374.778,347.217 377.251,329.939 369.396 L 325.940 367.578 346.173 299.616 C 357.724 260.818,366.406 230.332,366.406 228.573 C 366.406 224.154,365.390 223.329,344.017 210.385 L 325.000 198.867 325.000 164.125 L 325.000 129.382 322.901 127.191 C 320.823 125.023,320.702 125.000,311.182 125.000 L 301.563 125.000 301.563 111.474 L 301.563 97.949 299.371 95.849 L 297.180 93.750 283.356 93.750 L 269.531 93.750 269.531 81.211 C 269.531 61.574,270.804 62.500,243.801 62.500 L 223.438 62.500 223.438 33.441 L 223.438 4.382 221.338 2.191 L 219.239 -0.000 200.000 -0.000 L 180.761 0.000 178.662 2.191 M207.813 39.453 L 207.813 62.500 200.000 62.500 L 192.188 62.500 192.188 39.453 L 192.188 16.406 200.000 16.406 L 207.813 16.406 207.813 39.453 M253.125 86.328 L 253.125 93.750 200.000 93.750 L 146.875 93.750 146.875 86.328 L 146.875 78.906 200.000 78.906 L 253.125 78.906 253.125 86.328 M285.938 117.578 L 285.938 125.000 200.000 125.000 L 114.063 125.000 114.063 117.578 L 114.063 110.156 200.000 110.156 L 285.938 110.156 285.938 117.578 M130.494 165.234 C 108.858 178.340,91.036 189.063,90.890 189.063 C 90.744 189.063,90.625 178.340,90.625 165.234 L 90.625 141.406 130.229 141.406 L 169.833 141.406 130.494 165.234 M309.375 165.234 C 309.375 178.340,309.256 189.063,309.110 189.063 C 308.964 189.063,291.142 178.340,269.506 165.234 L 230.167 141.406 269.771 141.406 L 309.375 141.406 309.375 165.234 M192.188 255.742 L 192.188 363.828 185.742 361.884 C 168.824 356.783,153.308 358.695,133.984 368.262 C 116.267 377.034,105.309 379.427,96.574 376.432 L 93.538 375.391 72.550 304.750 C 61.007 265.898,51.566 233.730,51.571 233.266 C 51.578 232.524,190.103 147.904,191.602 147.726 C 191.924 147.688,192.188 196.295,192.188 255.742 M278.788 190.234 C 317.087 213.438,348.425 232.807,348.430 233.277 C 348.434 233.747,340.000 262.505,329.688 297.184 C 319.375 331.863,310.938 360.342,310.938 360.469 C 310.938 360.597,308.916 360.374,306.445 359.975 C 290.468 357.395,277.983 359.895,257.056 369.868 C 236.847 379.498,227.228 380.253,211.366 373.454 L 207.813 371.931 207.813 259.728 C 207.813 197.548,208.112 147.642,208.483 147.786 C 208.852 147.930,240.490 167.031,278.788 190.234 M167.152 182.251 C 161.722 186.530,162.319 193.566,168.355 196.430 C 177.090 200.575,183.863 188.780,176.276 182.635 C 174.341 181.067,168.942 180.840,167.152 182.251 M230.843 181.914 C 221.611 184.886,223.398 197.656,233.046 197.656 C 239.132 197.656,242.878 190.283,239.351 185.248 C 238.325 183.783,233.565 181.002,232.642 181.328 C 232.521 181.371,231.712 181.634,230.843 181.914 M141.209 198.788 C 131.867 203.661,88.812 231.812,87.847 233.677 C 84.825 239.523,88.448 245.313,95.128 245.313 C 97.761 245.313,144.358 217.374,151.211 211.687 C 157.943 206.099,149.087 194.678,141.209 198.788 M254.066 200.376 C 250.651 203.250,250.495 208.207,253.711 211.651 C 259.006 217.323,305.578 244.851,309.939 244.888 C 315.501 244.934,317.578 242.924,317.578 237.496 C 317.578 232.241,317.862 232.468,288.672 214.448 C 260.527 197.073,258.817 196.378,254.066 200.376 " stroke="none" fill="#000000" fill-rule="evenodd"></path></g></svg>
