<?xml version="1.0" encoding="utf-8"?>
<!-- Generator: Adobe Illustrator 16.0.0, SVG Export Plug-In . SVG Version: 6.00 Build 0)  -->
<!DOCTYPE svg PUBLIC "-//W3C//DTD SVG 1.1//EN" "http://www.w3.org/Graphics/SVG/1.1/DTD/svg11.dtd">
<svg version="1.1" id="Layer_1" xmlns="http://www.w3.org/2000/svg" x="0px" y="0px"
     width="64px" height="64px" viewBox="0 0 64 64" enable-background="new 0 0 64 64" xml:space="preserve">

<g>
	<path d="M35.317,50.731L20,36.435V34h8c0.139,0.01,4.92,0.395,7.795-2.238C37.258,30.421,38,28.482,38,26
		c0-3.287-1.642-5.625-4.879-6.949C30.583,18.012,28.025,18,28,18h-8v-2h8c4.15,0,12,2.09,12,10c0,3.072-0.964,5.51-2.864,7.245
		c-3.533,3.228-8.996,2.772-9.227,2.751l-5.444,0.003l14.218,13.27L35.317,50.731z"/>
</g>
  <g>
	<rect x="20" y="16" width="24" height="2"/>
</g>
  <g>
	<rect x="20" y="22" width="24" height="2"/>
</g>
</svg>
