<svg xmlns="http://www.w3.org/2000/svg" width="121" height="122" viewBox="0 0 121 122">
    <g fill="none" fill-rule="evenodd">
        <g>
            <g transform="translate(-708 -218) translate(708 219)">
                <circle cx="60.5" cy="60" r="60" fill="#F6F8FB" stroke="#999"/>
                <path d="M17 14H106V103H17z"/>
                <path fill="#939494" fill-rule="nonzero" d="M67.875 21h-29.5c-4.056 0-7.338 3.375-7.338 7.5L31 88.5c0 4.125 3.282 7.5 7.338 7.5h44.287C86.681 96 90 92.625 90 88.5v-45L67.875 21zm3.688 37.5h-14.75v3.75h11.062c2.028 0 3.688 1.688 3.688 3.75v11.25c0 2.063-1.66 3.75-3.688 3.75h-3.688v3.75h-7.374V81h-7.376v-7.5h14.75v-3.75H53.126c-2.028 0-3.688-1.688-3.688-3.75V54.75c0-2.063 1.66-3.75 3.688-3.75h3.688v-3.75h7.374V51h7.376v7.5zm-7.376-15V26.625L80.781 43.5H64.187z"/>
            </g>
        </g>
    </g>
</svg>
