<svg xmlns="http://www.w3.org/2000/svg" width="23" height="23" fill="none" viewBox="0 0 23 23">
    <path fill="#5DAAF0" stroke="#5B5B5B" d="M22.5 11.5c0 6.075-4.925 11-11 11s-11-4.925-11-11 4.925-11 11-11 11 4.925 11 11z"/>
    <path fill="#fff" d="M10.115 12.66V16H8.99V7.469h3.147c.933 0 1.664.238 2.191.715.531.476.797 1.107.797 1.892 0 .828-.26 1.467-.78 1.916-.515.445-1.255.668-2.22.668h-2.01zm0-.92h2.022c.601 0 1.062-.14 1.383-.422.32-.285.48-.695.48-1.23 0-.508-.16-.914-.48-1.219-.32-.305-.76-.463-1.319-.474h-2.086v3.345z"/>
</svg>
