<svg xmlns="http://www.w3.org/2000/svg" width="121" height="122" viewBox="0 0 121 122">
    <g fill="none" fill-rule="evenodd">
        <g>
            <g transform="translate(-708 -218) translate(708 219)">
                <circle cx="60.5" cy="60" r="60" fill="#F6F8FB" stroke="#999"/>
                <path d="M14 12L108 12 108 106 14 106z"/>
                <path fill="#939494" fill-rule="nonzero" d="M60.532 54.722c-8.919-2.294-11.787-4.666-11.787-8.36 0-4.24 3.968-7.195 10.609-7.195 6.994 0 9.587 3.305 9.823 8.166h8.684c-.276-6.689-4.401-12.833-12.613-14.816V24H53.46v8.4c-7.623 1.633-13.753 6.533-13.753 14.039 0 8.983 7.505 13.455 18.468 16.061 9.823 2.333 11.788 5.756 11.788 9.372 0 2.684-1.926 6.961-10.61 6.961-8.094 0-11.276-3.577-11.709-8.166H39c.472 8.516 6.916 13.3 14.46 14.894V94h11.788v-8.361C72.91 84.2 79 79.806 79 71.833c0-11.044-9.548-14.816-18.468-17.11z"/>
            </g>
        </g>
    </g>
</svg>
