<svg id="Capa_1" enable-background="new 0 0 512 512" height="512" viewBox="0 0 512 512" width="512" xmlns="http://www.w3.org/2000/svg"><g><g><path d="m284.998 45.84h-142.16c-4.142 0-7.499 3.358-7.499 7.499s3.357 7.499 7.499 7.499h142.16c4.142 0 7.499-3.358 7.499-7.499s-3.357-7.499-7.499-7.499z"/><path d="m284.998 91.668h-142.16c-4.142 0-7.499 3.358-7.499 7.499s3.357 7.499 7.499 7.499h142.16c4.142 0 7.499-3.358 7.499-7.499s-3.357-7.499-7.499-7.499z"/><path d="m156.451 384.24h-36.103c-4.142 0-7.499 3.358-7.499 7.499s3.357 7.499 7.499 7.499h36.103c4.142 0 7.499-3.358 7.499-7.499s-3.356-7.499-7.499-7.499z"/><path d="m231.969 384.24h-36.103c-4.142 0-7.499 3.358-7.499 7.499s3.357 7.499 7.499 7.499h36.103c4.142 0 7.499-3.358 7.499-7.499s-3.357-7.499-7.499-7.499z"/><path d="m307.486 384.24h-36.104c-4.142 0-7.499 3.358-7.499 7.499s3.357 7.499 7.499 7.499h36.104c4.142 0 7.499-3.358 7.499-7.499s-3.357-7.499-7.499-7.499z"/><path d="m156.451 417.987h-36.103c-4.142 0-7.499 3.358-7.499 7.499s3.357 7.499 7.499 7.499h36.103c4.142 0 7.499-3.358 7.499-7.499s-3.356-7.499-7.499-7.499z"/><path d="m231.969 417.987h-36.103c-4.142 0-7.499 3.358-7.499 7.499s3.357 7.499 7.499 7.499h36.103c4.142 0 7.499-3.358 7.499-7.499s-3.357-7.499-7.499-7.499z"/><path d="m307.486 417.987h-36.104c-4.142 0-7.499 3.358-7.499 7.499s3.357 7.499 7.499 7.499h36.104c4.142 0 7.499-3.358 7.499-7.499s-3.357-7.499-7.499-7.499z"/><path d="m156.451 451.734h-36.103c-4.142 0-7.499 3.358-7.499 7.499s3.357 7.499 7.499 7.499h36.103c4.142 0 7.499-3.358 7.499-7.499s-3.356-7.499-7.499-7.499z"/><path d="m231.969 451.734h-36.103c-4.142 0-7.499 3.358-7.499 7.499s3.357 7.499 7.499 7.499h36.103c4.142 0 7.499-3.358 7.499-7.499s-3.357-7.499-7.499-7.499z"/><path d="m307.486 451.734h-36.104c-4.142 0-7.499 3.358-7.499 7.499s3.357 7.499 7.499 7.499h36.104c4.142 0 7.499-3.358 7.499-7.499s-3.357-7.499-7.499-7.499z"/><path d="m330.18 197.224c0-8.617-7.01-15.628-15.628-15.628h-201.269c-8.617 0-15.628 7.011-15.628 15.628v21.577c0 4.142 3.357 7.499 7.499 7.499s7.499-3.358 7.499-7.499v-21.577c0-.347.282-.629.629-.629h201.269c.347 0 .629.282.629.629v78.248c0 .347-.282.629-.629.629h-201.268c-.347 0-.629-.282-.629-.629v-21.61c0-4.142-3.357-7.499-7.499-7.499s-7.499 3.358-7.499 7.499v21.61c0 8.617 7.01 15.628 15.628 15.628h201.269c8.617 0 15.628-7.011 15.628-15.628v-78.248z"/><path d="m166.936 324.061c0-8.258-6.718-14.976-14.976-14.976h-36.783c-9.67 0-16.814 9.03-14.566 18.45l4.896 20.533c1.615 6.772 7.605 11.502 14.567 11.502h31.886c8.258 0 14.976-6.718 14.976-14.975zm-46.84 20.528-4.92-20.505 36.761-.023.029 20.51z"/><path d="m248.281 344.594v-20.534c0-8.258-6.718-14.976-14.975-14.976h-38.776c-8.257 0-14.975 6.718-14.975 14.976v20.534c0 8.258 6.718 14.975 14.975 14.975h38.776c8.257 0 14.975-6.717 14.975-14.975zm-53.728 0-.023-20.511 38.753-.023.03 20.51z"/><path d="m322.328 348.068 4.897-20.533c2.244-9.406-4.882-18.45-14.567-18.45h-36.782c-8.258 0-14.976 6.718-14.976 14.976v20.534c0 8.258 6.718 14.975 14.976 14.975h31.885c6.962-.001 12.953-4.73 14.567-11.502zm-14.566-3.497-31.865.023-.022-20.511 36.761-.028z"/><path d="m434.448 71.621h-40.653v-34.579c0-.085-.001-.17-.004-.255-.702-20.626-17.421-36.784-38.067-36.787-.001 0-.002 0-.003 0h-220.372c-22.129 0-40.133 18.004-40.133 40.133v64.122c-21.605 3.283-38.216 21.983-38.216 44.49v100.097c0 56.278 9.922 71.39 9.922 126.286v98.773c0 21.007 17.091 38.098 38.098 38.098h217.793c21.007 0 38.098-17.091 38.098-38.098v-30.75c0-4.142-3.357-7.499-7.499-7.499s-7.499 3.358-7.499 7.499v30.75c0 12.737-10.362 23.099-23.1 23.099h-217.792c-12.737 0-23.1-10.362-23.1-23.099v-98.773c0-56.029-9.922-71.615-9.922-126.286v-100.096c0-14.209 9.932-26.135 23.217-29.22v19.185c0 10.769 8.761 19.531 19.531 19.531h198.341c10.77 0 19.531-8.761 19.531-19.531v-19.185c13.285 3.085 23.217 15.011 23.217 29.22v100.097c0 54.684-9.922 70.208-9.922 126.285v32.359c0 4.142 3.357 7.499 7.499 7.499s7.499-3.358 7.499-7.499v-32.359c0-54.593 9.922-70.329 9.922-126.285v-67.888h46.064c19.98 0 38.101-16.153 38.101-38.101v-50.682c0-11.332-9.218-20.551-20.551-20.551zm-116.828 67.09c0 2.499-2.033 4.532-4.532 4.532h-198.341c-2.499 0-4.532-2.033-4.532-4.532v-98.578c0-13.859 11.274-25.135 25.134-25.135h190.093c-4.905 6.413-7.822 14.424-7.822 23.103zm53.214 27.246v-17.211c0-22.508-16.61-41.208-38.216-44.49v-66.155c0-12.739 10.363-23.103 23.103-23.103 12.477 0 22.59 9.733 23.075 22.18v105.676c0 8.678 2.917 16.69 7.822 23.103zm69.167-23.103c0 12.857-10.445 22.993-23.783 23.085-12.425-.362-22.422-10.575-22.422-23.085v-56.234h40.653c3.061 0 5.552 2.491 5.552 5.552z"/></g></g></svg>