<svg xmlns="http://www.w3.org/2000/svg" width="26" height="23" viewBox="0 0 26 23">
    <g fill="none" fill-rule="evenodd">
        <circle cx="11.5" cy="11.5" r="11" fill="#BABABA" stroke="#FFF"/>
        <path fill="#797979" fill-rule="nonzero" d="M23.4 10.795c0-1.994-.686-3.774-1.95-5.447-1.262-1.674-2.453-2.955-4.193-3.914C15.527.481 13.66 0 11.64 0c-1.576 0-3.085.307-4.524.919-1.433.609-2.684 1.418-3.723 2.44C2.36 4.376 1.533 5.597.915 7.021.3 8.44 0 9.927 0 11.487s.3 3.06.915 4.48c.617 1.424 1.449 2.642 2.478 3.661 1.042 1.032 2.29 1.844 3.723 2.454 1.439.61 2.948.918 4.524.918 1.766 0 3.482-.39 5.147-1.183l-.597-1.283c-1.436.717-2.961 1.082-4.55 1.082-1.842 0-3.56-.45-5.134-1.359-1.564-.903-2.81-2.137-3.723-3.686-.918-1.559-1.372-3.26-1.372-5.084 0-1.824.457-3.51 1.372-5.058.915-1.547 2.159-2.783 3.723-3.686 1.574-.909 3.292-1.36 5.134-1.36 1.322 0 2.592.255 3.8.743 1.219.493 2.275 1.145 3.177 1.988.902.843 1.624 1.838 2.198 3.007.57 1.16.902 2.378.991 3.674h-2.783l3.444 3.398L26 10.795h-2.783.183z"/>
        <text fill="#E9E9E9" font-family="Roboto-Regular, Roboto" font-size="12" letter-spacing=".506">
            <tspan x="8" y="16">R</tspan>
        </text>
    </g>
</svg>
