<?xml version="1.0" encoding="iso-8859-1"?>
<!-- Generator: Adobe Illustrator 19.1.0, SVG Export Plug-In . SVG Version: 6.00 Build 0)  -->
<svg version="1.1" id="Capa_1" xmlns="http://www.w3.org/2000/svg" x="0px" y="0px"
     viewBox="0 0 313.662 313.662" style="enable-background:new 0 0 313.662 313.662;" xml:space="preserve">
<g>
	<path d="M272.916,151.172c-2.269,0-4.415,0.463-6.401,1.247l-79.847-79.847l7.14-7.14c9.139-9.139,9.139-23.966,0-33.105
		l-25.476-25.47C163.762,2.288,157.766,0,151.783,0c-5.996,0-11.986,2.288-16.556,6.857l-34.441,34.441
		c-11.684-4.537-24.049-6.819-36.414-6.819c-14.075,0-28.156,2.95-41.235,8.85l35.74,35.733l-1.009,1.311
		c-14.062,18.207-12.449,44.159,3.76,60.367c8.618,8.618,20.065,13.355,32.243,13.355c10.122,0,20.11-3.406,28.124-9.602
		l1.305-1.009l32.346,32.346c10.72-23.76,11.678-50.817,2.95-75.175l19.088-19.081l79.487,79.487
		c-1.157,2.346-1.864,4.955-1.864,7.744c0,2.269,0.463,4.422,1.24,6.408l-87.842,87.823c-0.341,0.341-0.514,0.758-0.758,1.144
		c-10.579-3.4-21.806-5.334-33.535-5.334c-26.234,0-50.213,9.248-69.211,24.473H43.375c-8.381,0-15.174,6.793-15.174,15.174
		c0,8.381,6.8,15.167,15.174,15.167h177.169c8.381,0,15.167-6.793,15.167-15.167c0-8.387-6.793-15.174-15.167-15.174h-16.928
		c-7.018-5.623-14.724-10.418-22.963-14.248l84.519-84.519c2.346,1.157,4.949,1.864,7.738,1.864c9.73,0,17.616-7.892,17.616-17.616
		C290.525,159.077,282.646,151.172,272.916,151.172z M93.857,141.236c-8.374,0-16.742-3.181-23.156-9.589
		c-11.877-11.877-12.674-30.47-2.674-43.42l23.953,23.946l22.14,22.14C108.17,138.922,101.011,141.236,93.857,141.236z
		 M149.495,91.563l-5.758,5.758l2.751,7.661c5.379,15.013,6.485,31.376,3.387,46.909l-16.331-16.331l-10.328-10.328l-76.184-76.19
		c5.662-1.138,11.453-1.716,17.333-1.716c10.926,0,21.613,2.005,31.755,5.945l7.821,3.04l5.926-5.932l34.448-34.441
		c1.992-1.999,4.64-3.091,7.462-3.091c2.815,0,5.469,1.099,7.462,3.098l25.476,25.463c1.992,1.999,3.085,4.647,3.085,7.468
		c0,2.815-1.099,5.469-3.085,7.462L149.495,91.563z M199.11,296.174h4.512h16.928c1.273,0,2.314,1.041,2.314,2.32
		c0,1.273-1.041,2.314-2.314,2.314H43.381c-1.279,0-2.32-1.041-2.32-2.314c0-1.279,1.041-2.32,2.32-2.32h21.826h4.512l3.522-2.821
		c17.68-14.158,38.837-21.646,61.177-21.646c22.346,0,43.503,7.487,61.183,21.646L199.11,296.174z"/>
</g>
  <g>
</g>
  <g>
</g>
  <g>
</g>
  <g>
</g>
  <g>
</g>
  <g>
</g>
  <g>
</g>
  <g>
</g>
  <g>
</g>
  <g>
</g>
  <g>
</g>
  <g>
</g>
  <g>
</g>
  <g>
</g>
  <g>
</g>
</svg>
