<svg id="svg" xmlns="http://www.w3.org/2000/svg" xmlns:xlink="http://www.w3.org/1999/xlink" width="400" height="400" viewBox="0, 0, 400,400"><g id="svgg"><g id="svgg"><path id="path0" d="M163.636 1.918 C 161.776 3.778,161.719 4.175,161.719 15.199 L 161.719 26.563 146.433 26.563 C 124.659 26.562,125.840 25.415,125.806 46.623 L 125.781 62.387 114.082 62.639 C 103.123 62.875,102.270 63.003,100.605 64.669 L 98.828 66.448 98.606 96.115 L 98.384 125.781 69.219 125.781 C 40.897 125.781,39.995 125.828,37.996 127.400 L 35.938 129.020 35.937 257.401 L 35.937 385.782 28.968 386.055 C 18.705 386.457,13.935 392.813,19.777 398.301 L 21.585 400.000 200.109 400.000 L 378.634 400.000 380.333 398.192 C 385.797 392.375,381.262 386.456,371.032 386.055 L 364.063 385.782 364.063 208.125 C 364.062 32.273,364.047 30.453,362.520 28.926 C 360.078 26.484,360.670 26.503,292.795 26.734 L 228.168 26.953 226.389 28.731 C 224.671 30.448,224.601 31.059,224.369 46.504 L 224.129 62.500 217.969 62.500 L 211.808 62.500 211.568 46.504 C 211.250 25.311,212.970 27.031,191.777 26.713 L 175.781 26.473 175.781 15.920 C 175.781 2.537,174.657 0.076,168.519 0.025 C 166.391 0.007,165.013 0.541,163.636 1.918 M197.656 51.563 L 197.656 62.500 168.750 62.500 L 139.844 62.500 139.844 51.563 L 139.844 40.625 168.750 40.625 L 197.656 40.625 197.656 51.563 M350.000 213.281 L 350.000 385.938 325.781 385.938 L 301.563 385.938 301.563 294.480 C 301.563 226.446,301.330 202.585,300.654 201.316 C 297.404 195.214,287.500 197.138,287.500 203.871 L 287.500 206.250 280.859 206.250 L 274.219 206.250 274.219 203.871 C 274.219 195.680,262.096 195.572,260.461 203.748 L 259.961 206.250 249.121 206.250 L 238.281 206.250 238.281 123.438 L 238.281 40.625 294.141 40.625 L 350.000 40.625 350.000 213.281 M264.078 63.503 C 255.867 67.658,260.336 88.125,268.888 85.528 C 273.861 84.018,276.840 70.276,273.217 65.557 C 270.970 62.630,267.393 61.826,264.078 63.503 M291.016 63.404 C 284.438 67.342,286.252 84.224,293.397 85.565 C 296.837 86.211,300.560 83.614,301.217 80.110 C 303.441 68.259,297.944 59.257,291.016 63.404 M317.984 63.503 C 312.050 66.506,312.575 82.598,318.689 85.131 C 321.427 86.265,325.315 85.278,327.035 83.011 C 328.403 81.209,328.474 67.316,327.124 65.557 C 324.876 62.630,321.299 61.826,317.984 63.503 M224.219 141.406 L 224.219 206.250 200.000 206.250 L 175.781 206.250 175.781 195.313 L 175.781 184.375 187.145 184.375 C 200.368 184.375,202.368 183.479,202.319 177.575 C 202.267 171.432,199.811 170.312,186.379 170.313 L 175.781 170.313 175.781 159.375 L 175.781 148.438 187.145 148.438 C 200.368 148.438,202.368 147.541,202.319 141.637 C 202.268 135.504,199.804 134.375,186.466 134.375 L 175.955 134.375 175.442 131.638 C 174.313 125.623,175.214 125.781,142.040 125.781 L 112.500 125.781 112.500 101.172 L 112.500 76.563 168.359 76.563 L 224.219 76.563 224.219 141.406 M138.297 99.441 C 134.179 101.524,133.306 106.423,136.398 110.096 L 138.420 112.500 168.464 112.500 L 198.509 112.500 200.426 110.582 C 203.736 107.272,202.851 101.566,198.684 99.346 C 196.167 98.006,140.962 98.092,138.297 99.441 M262.683 109.372 C 259.302 112.522,259.167 124.968,262.476 128.490 C 268.229 134.614,274.219 129.845,274.219 119.141 C 274.219 108.728,268.538 103.917,262.683 109.372 M289.418 109.730 C 283.967 115.181,287.578 130.500,294.300 130.444 C 299.768 130.398,301.563 127.605,301.563 119.141 C 301.563 108.778,295.256 103.892,289.418 109.730 M316.347 109.829 C 310.999 115.522,314.560 130.469,321.265 130.469 C 326.690 130.469,328.125 128.100,328.125 119.141 C 328.125 108.402,322.136 103.667,316.347 109.829 M161.719 262.891 L 161.719 385.938 146.094 385.938 L 130.469 385.938 130.469 370.058 L 130.469 354.179 128.454 352.285 C 126.449 350.399,126.349 350.390,107.035 350.158 C 79.081 349.822,80.469 348.726,80.469 371.145 L 80.469 385.938 65.234 385.938 L 50.000 385.938 50.000 262.891 L 50.000 139.844 105.859 139.844 L 161.719 139.844 161.719 262.891 M264.299 153.134 C 260.414 154.699,258.521 166.447,261.291 171.804 C 263.520 176.114,270.205 176.707,273.129 172.855 C 274.497 171.052,274.568 157.160,273.217 155.401 C 271.093 152.634,267.689 151.769,264.299 153.134 M292.188 152.866 C 286.915 154.924,285.040 169.292,289.497 173.479 C 295.722 179.327,301.172 174.931,301.172 164.063 C 301.172 154.547,298.002 150.597,292.188 152.866 M318.055 153.434 C 312.085 156.743,312.547 172.431,318.689 174.975 C 321.427 176.109,325.315 175.121,327.035 172.855 C 328.403 171.052,328.474 157.160,327.124 155.401 C 324.857 152.449,321.246 151.665,318.055 153.434 M75.391 171.256 C 72.388 172.978,71.925 174.418,71.925 182.031 C 71.925 190.258,72.509 191.673,76.480 193.057 C 82.313 195.090,85.938 190.894,85.938 182.107 C 85.938 172.727,81.245 167.899,75.391 171.256 M102.359 171.284 C 94.997 175.130,97.530 193.324,105.429 193.324 C 111.051 193.324,112.500 191.010,112.500 182.031 C 112.500 172.280,108.523 168.065,102.359 171.284 M129.297 171.256 C 126.294 172.978,125.831 174.418,125.831 182.031 C 125.831 190.258,126.416 191.673,130.386 193.057 C 136.241 195.098,139.844 190.897,139.844 182.031 C 139.844 172.618,135.198 167.872,129.297 171.256 M316.347 199.672 C 310.999 205.366,314.560 220.313,321.265 220.313 C 326.690 220.313,328.125 217.943,328.125 208.984 C 328.125 198.246,322.136 193.510,316.347 199.672 M73.793 217.543 C 68.314 223.021,71.951 238.281,78.735 238.281 C 84.038 238.281,85.547 235.773,85.547 226.953 C 85.547 216.314,79.701 211.634,73.793 217.543 M101.495 216.626 C 97.156 219.957,97.156 233.949,101.495 237.280 C 107.349 241.775,112.500 236.942,112.500 226.953 C 112.500 216.964,107.349 212.131,101.495 216.626 M127.699 217.543 C 122.220 223.021,125.857 238.281,132.641 238.281 C 137.944 238.281,139.453 235.773,139.453 226.953 C 139.453 216.314,133.608 211.634,127.699 217.543 M287.500 303.125 L 287.500 385.938 231.641 385.938 L 175.781 385.938 175.781 303.125 L 175.781 220.313 231.641 220.313 L 287.500 220.313 287.500 303.125 M199.574 235.511 L 197.656 237.429 197.681 303.285 C 197.700 353.821,197.927 369.429,198.658 370.380 C 201.291 373.811,205.910 374.327,209.136 371.552 L 211.328 369.667 211.328 303.646 L 211.328 237.626 209.434 235.610 C 206.852 232.861,202.270 232.815,199.574 235.511 M226.503 235.610 L 224.609 237.626 224.609 303.497 C 224.609 366.960,224.663 369.427,226.084 370.996 C 228.948 374.161,234.617 373.849,237.280 370.380 C 238.010 369.429,238.237 353.821,238.256 303.285 L 238.281 237.429 236.364 235.511 C 233.667 232.815,229.086 232.861,226.503 235.610 M253.480 235.511 L 251.563 237.429 251.587 303.285 C 251.606 353.821,251.834 369.429,252.564 370.380 C 255.198 373.810,259.816 374.327,263.042 371.552 L 265.234 369.667 265.454 304.951 C 265.575 269.357,265.482 239.453,265.249 238.498 C 264.055 233.612,257.135 231.856,253.480 235.511 M318.055 243.278 C 313.853 245.606,312.376 256.990,315.591 262.262 C 318.091 266.363,324.088 266.522,327.124 262.568 C 328.456 260.833,328.405 246.918,327.060 245.148 C 325.021 242.464,321.021 241.634,318.055 243.278 M75.852 261.008 C 72.034 262.534,69.885 276.640,72.876 280.536 C 78.333 287.643,85.929 282.695,85.935 272.032 C 85.939 262.607,82.167 258.483,75.852 261.008 M102.359 261.128 C 95.699 264.607,97.235 281.930,104.322 283.259 C 110.257 284.373,112.444 281.303,112.475 271.816 C 112.507 262.130,108.515 257.912,102.359 261.128 M129.758 261.008 C 125.941 262.534,123.791 276.640,126.783 280.536 C 131.998 287.329,139.279 283.278,139.730 273.332 C 140.200 262.979,136.443 258.335,129.758 261.008 M316.347 289.516 C 310.999 295.209,314.560 310.156,321.265 310.156 C 326.690 310.156,328.125 307.787,328.125 298.828 C 328.125 288.089,322.136 283.354,316.347 289.516 M73.793 307.386 C 68.320 312.859,71.950 328.125,78.723 328.125 C 84.397 328.125,86.418 324.221,85.797 314.462 C 85.261 306.051,78.886 302.293,73.793 307.386 M101.495 306.470 C 97.156 309.801,97.156 323.793,101.495 327.124 C 107.349 331.619,112.500 326.786,112.500 316.797 C 112.500 306.808,107.349 301.975,101.495 306.470 M127.699 307.386 C 122.226 312.859,125.856 328.125,132.630 328.125 C 138.303 328.125,140.324 324.221,139.703 314.462 C 139.167 306.051,132.792 302.293,127.699 307.386 M318.249 333.143 C 311.365 336.188,312.724 353.779,319.947 355.134 C 325.882 356.248,328.069 353.178,328.100 343.691 C 328.133 333.860,324.769 330.258,318.249 333.143 M116.406 375.000 L 116.406 385.938 114.453 385.938 C 112.517 385.938,112.500 385.876,112.500 379.042 C 112.500 369.804,109.181 366.397,102.787 369.068 C 99.280 370.533,98.438 372.677,98.438 380.129 C 98.438 385.804,98.393 385.938,96.484 385.938 L 94.531 385.938 94.531 375.000 L 94.531 364.063 105.469 364.063 L 116.406 364.063 116.406 375.000 " stroke="none" fill="#000000" fill-rule="evenodd"></path></g></svg>