<?xml version="1.0" encoding="iso-8859-1"?>
<!-- Generator: Adobe Illustrator 22.1.0, SVG Export Plug-In . SVG Version: 6.00 Build 0)  -->
<svg xmlns="http://www.w3.org/2000/svg" xmlns:xlink="http://www.w3.org/1999/xlink" version="1.1" id="Layer_3" x="0px" y="0px" viewBox="0 0 64 64" style="enable-background:new 0 0 64 64;" xml:space="preserve" width="512" height="512">
<g>
	<path d="M16,29h12c0.552,0,1-0.448,1-1v-4c0-0.552-0.448-1-1-1H16c-0.552,0-1,0.448-1,1v4C15,28.552,15.448,29,16,29z M17,25h10v2   H17V25z"/>
	<rect x="11" y="31" width="22" height="2"/>
	<rect x="11" y="35" width="22" height="2"/>
	<path d="M18,39c-2.757,0-5,2.243-5,5c0,1.13,0.391,2.162,1.026,3H14v7c0,0.369,0.203,0.708,0.528,0.882   c0.324,0.174,0.718,0.153,1.026-0.05L18,53.202l2.445,1.63C20.613,54.943,20.806,55,21,55c0.162,0,0.324-0.039,0.472-0.118   C21.797,54.708,22,54.369,22,54v-7h-0.026C22.609,46.162,23,45.13,23,44C23,41.243,20.757,39,18,39z M18,41c1.654,0,3,1.346,3,3   s-1.346,3-3,3s-3-1.346-3-3S16.346,41,18,41z M18.555,51.168c-0.336-0.225-0.773-0.225-1.109,0L16,52.132v-3.556   C16.614,48.846,17.288,49,18,49s1.386-0.154,2-0.424v3.556L18.555,51.168z"/>
	<rect x="27" y="43" width="6" height="2"/>
	<rect x="27" y="47" width="6" height="2"/>
	<path d="M50,26c0.265,0,0.52-0.105,0.707-0.293l5-5C55.895,20.52,56,20.265,56,20v-8.371l3-1.167v8.235l-1.832,2.748   c-0.224,0.336-0.224,0.773,0,1.109l2,3C59.354,25.833,59.666,26,60,26s0.646-0.167,0.832-0.445l2-3   c0.224-0.336,0.224-0.773,0-1.109L61,18.697V9c0-0.413-0.253-0.783-0.638-0.932l-18-7c-0.232-0.091-0.492-0.091-0.725,0l-18,7   C23.253,8.217,23,8.587,23,9s0.253,0.783,0.638,0.932L28,11.629V15H11c-0.552,0-1,0.448-1,1v1.586c0,0.635-0.258,1.258-0.707,1.707   S8.221,20,7.586,20H6c-0.552,0-1,0.448-1,1v32c0,0.553,0.448,1,1,1h1.586c0.645,0,1.251,0.251,1.707,0.707   C9.749,55.163,10,55.77,10,56.414V58c0,0.553,0.448,1,1,1h22c0.552,0,1-0.447,1-1v-1.586c0-0.645,0.251-1.251,0.708-1.707   C35.163,54.251,35.769,54,36.414,54H38c0.552,0,1-0.447,1-1V26h2v35H3V13h19v-2H2c-0.552,0-1,0.448-1,1v50c0,0.553,0.448,1,1,1h40   c0.552,0,1-0.447,1-1V26H50z M60,23.197L59.202,22L60,20.803L60.798,22L60,23.197z M42,3.073L57.241,9L42,14.927L26.759,9L42,3.073   z M41.638,16.932C41.754,16.978,41.877,17,42,17s0.246-0.022,0.362-0.068L54,12.406v7.18L49.586,24H34.414L30,19.586v-7.18   L41.638,16.932z M37,52h-0.586c-1.18,0-2.288,0.459-3.122,1.293S32,55.235,32,56.414V57H12v-0.586c0-1.179-0.459-2.287-1.292-3.121   S8.766,52,7.586,52H7V22h0.586c1.179,0,2.288-0.459,3.121-1.293C11.541,19.874,12,18.765,12,17.586V17h16v3   c0,0.265,0.105,0.52,0.293,0.707l5,5C33.48,25.895,33.735,26,34,26h3V52z"/>
	<path d="M54.316,51.052c-1.582-0.528-2.841-1.787-3.368-3.368C50.812,47.275,50.431,47,50,47s-0.812,0.275-0.949,0.684   c-0.527,1.581-1.786,2.84-3.368,3.368C45.275,51.188,45,51.569,45,52s0.275,0.812,0.684,0.948c1.582,0.528,2.841,1.787,3.368,3.368   C49.188,56.725,49.569,57,50,57s0.812-0.275,0.949-0.684c0.527-1.581,1.786-2.84,3.368-3.368C54.725,52.812,55,52.431,55,52   S54.725,51.188,54.316,51.052z M50,53.804c-0.492-0.7-1.104-1.312-1.804-1.804c0.701-0.492,1.312-1.104,1.804-1.804   c0.492,0.7,1.104,1.312,1.804,1.804C51.104,52.492,50.492,53.104,50,53.804z"/>
	<path d="M62.316,35.052c-1.582-0.528-2.841-1.787-3.368-3.368C58.812,31.275,58.431,31,58,31s-0.812,0.275-0.949,0.684   c-0.527,1.581-1.786,2.839-3.368,3.368C53.275,35.188,53,35.569,53,36s0.275,0.812,0.684,0.948   c1.582,0.528,2.841,1.787,3.368,3.368C57.188,40.725,57.569,41,58,41s0.812-0.275,0.949-0.684c0.527-1.581,1.786-2.84,3.368-3.368   C62.725,36.812,63,36.431,63,36S62.725,35.188,62.316,35.052z M58,37.804c-0.492-0.7-1.104-1.312-1.804-1.804   c0.701-0.492,1.312-1.104,1.804-1.804c0.492,0.7,1.104,1.312,1.804,1.804C59.104,36.492,58.492,37.104,58,37.804z"/>
</g>
</svg>
