<svg height="496pt" viewBox="0 -3 496.002 496" width="496pt" xmlns="http://www.w3.org/2000/svg"><path d="m400.003906 192c52.933594 0 96-43.0625 96-96 0-52.933594-43.066406-96-96-96-52.9375 0-96 43.066406-96 96 0 52.9375 43.0625 96 96 96zm0-16c-35.753906 0-66.089844-23.574219-76.3125-56h58.375c4.207032 0 8.335938 1.703125 11.3125 4.6875l1.933594 1.9375c5.953125 5.960938 14.195312 9.375 22.625 9.375h51.242188c-13.859376 23.871094-39.648438 40-69.175782 40zm-80-80c0-2.703125.140625-5.367188.40625-8h77.65625c4.207032 0 8.335938 1.703125 11.3125 4.6875l1.933594 1.9375c5.953125 5.960938 14.195312 9.375 22.625 9.375h45.65625c-.550781 5.519531-1.664062 10.871094-3.28125 16h-58.375c-4.207031 0-8.335938-1.703125-11.3125-4.6875l-1.933594-1.933594c-5.953125-5.960937-14.195312-9.378906-22.625-9.378906h-61.65625c-.265625-2.632812-.40625-5.296875-.40625-8zm80-80c41.40625 0 75.566406 31.632812 79.589844 72h-45.65625c-4.207031 0-8.335938-1.703125-11.3125-4.6875l-1.933594-1.933594c-5.953125-5.960937-14.195312-9.378906-22.625-9.378906h-74.375c10.222656-32.421875 40.558594-56 76.3125-56zm0 0"/><path d="m144.003906 352c0-10.414062-6.714844-19.214844-16-22.527344v-54.160156l40-40 10.34375 10.34375c1.558594 1.5625 3.605469 2.34375 5.65625 2.34375 2.046875 0 4.09375-.78125 5.652344-2.34375l24-24c3.128906-3.128906 3.128906-8.183594 0-11.3125l-88-88c-3.125-3.125-8.183594-3.125-11.308594 0l-24 24c-3.128906 3.128906-3.128906 8.183594 0 11.3125l10.34375 10.34375-74.34375 74.34375c-3.128906 3.128906-3.128906 8.183594 0 11.3125l10.34375 10.34375-34.34375 34.34375c-3.128906 3.128906-3.128906 8.183594 0 11.3125l24 24c1.558594 1.5625 3.605469 2.34375 5.65625 2.34375 2.046875 0 4.09375-.78125 5.652344-2.34375l11.210938-11.207031 47.582031 33.992187c.90625 4.824219 3.234375 9.144532 6.5625 12.488282l-46.441407 116.09375 14.855469 5.945312 46.089844-115.222656c.832031.085937 1.636719.253906 2.488281.253906.847656 0 1.652344-.167969 2.476563-.246094l46.089843 115.222656 14.855469-5.945312-46.441406-116.09375c4.335937-4.351562 7.019531-10.335938 7.019531-16.9375zm-24-212.6875 76.6875 76.6875-12.6875 12.6875-10.347656-10.34375-66.34375-66.34375zm-8 40 44.6875 44.6875-68.6875 68.6875-10.347656-10.34375-34.34375-34.34375zm-80 137.375-12.691406-12.6875 28.691406-28.6875 12.6875 12.6875zm40-17.375 10.34375 10.34375c1.558594 1.5625 3.605469 2.34375 5.65625 2.34375 2.046875 0 4.09375-.78125 5.652344-2.34375l18.347656-18.34375v38.160156c-5.074218 1.808594-9.363281 5.214844-12.210937 9.6875l-39.453125-28.183594zm40 52.6875c0-4.40625 3.582032-8 8-8 4.414063 0 8 3.59375 8 8 0 4.410156-3.585937 8-8 8-4.417968 0-8-3.589844-8-8zm0 0"/><path d="m232.003906 248c0 14.488281 19.871094 22.863281 43.535156 27.394531 7.910157 21.335938 28.414063 36.605469 52.464844 36.605469 24.046875 0 44.550782-15.269531 52.460938-36.605469 23.664062-4.53125 43.539062-12.90625 43.539062-27.394531 0-18.453125-32.699218-26.144531-54.273437-29.207031-10.265625-11.503907-25.144531-18.792969-41.726563-18.792969-16.585937 0-31.464844 7.289062-41.730468 18.792969-21.574219 3.0625-54.269532 10.753906-54.269532 29.207031zm15.949219.335938c.871094-2.230469 9.121094-7.375 27.441406-11.34375-2.152343 5.953124-3.390625 12.328124-3.390625 19.007812 0 .800781.085938 1.578125.117188 2.378906-14.535156-3.355468-23.015625-7.441406-24.167969-10.042968zm80.050781 47.664062c-13.851562 0-26.058594-7.078125-33.242187-17.800781 11.769531 1.265625 23.441406 1.800781 33.242187 1.800781 9.796875 0 21.46875-.535156 33.238282-1.800781-7.183594 10.722656-19.390626 17.800781-33.238282 17.800781zm80.046875-48.335938c-1.152343 2.945313-9.625 7.199219-24.160156 10.632813.023437-.769531.113281-1.519531.113281-2.296875 0-6.679688-1.242187-13.0625-3.394531-19.007812 18.320313 3.945312 26.570313 8.976562 27.441406 10.671874zm-80.046875-31.664062c22.054688 0 40 17.945312 40 40 0 1.839844-.304687 3.59375-.546875 5.367188-11.152343 1.601562-24.382812 2.632812-39.453125 2.632812-15.074218 0-28.304687-1.03125-39.457031-2.605469-.242187-1.785156-.542969-3.546875-.542969-5.394531 0-22.054688 17.941406-40 40-40zm0 0"/><path d="m192.003906 104c0 4.417969 3.574219 8 8 8 17.644532 0 32 14.351562 32 32 0 4.417969 3.574219 8 8 8 4.421875 0 8-3.582031 8-8 0-17.648438 14.351563-32 32-32 4.421875 0 8-3.582031 8-8 0-4.414062-3.578125-8-8-8-17.648437 0-32-14.351562-32-32 0-4.414062-3.578125-8-8-8-4.425781 0-8 3.585938-8 8 0 17.648438-14.355468 32-32 32-4.425781 0-8 3.585938-8 8zm48-13.496094c3.550782 5.34375 8.148438 9.9375 13.492188 13.496094-5.34375 3.554688-9.933594 8.152344-13.492188 13.496094-3.554687-5.34375-8.152344-9.933594-13.496094-13.496094 5.34375-3.550781 9.941407-8.152344 13.496094-13.496094zm0 0"/><path d="m248.003906 304c-17.648437 0-32-14.351562-32-32 0-4.414062-3.578125-8-8-8-4.425781 0-8 3.585938-8 8 0 17.648438-14.355468 32-32 32-4.425781 0-8 3.585938-8 8 0 4.417969 3.574219 8 8 8 17.644532 0 32 14.351562 32 32 0 4.417969 3.574219 8 8 8 4.421875 0 8-3.582031 8-8 0-17.648438 14.351563-32 32-32 4.421875 0 8-3.582031 8-8 0-4.414062-3.578125-8-8-8zm-40 21.496094c-3.554687-5.34375-8.152344-9.933594-13.496094-13.496094 5.34375-3.550781 9.933594-8.152344 13.496094-13.496094 3.550782 5.34375 8.148438 9.9375 13.492188 13.496094-5.34375 3.554688-9.941406 8.152344-13.492188 13.496094zm0 0"/><path d="m360.003906 400c-17.648437 0-32-14.351562-32-32 0-4.414062-3.578125-8-8-8-4.425781 0-8 3.585938-8 8 0 17.648438-14.355468 32-32 32-4.425781 0-8 3.585938-8 8 0 4.417969 3.574219 8 8 8 17.644532 0 32 14.351562 32 32 0 4.417969 3.574219 8 8 8 4.421875 0 8-3.582031 8-8 0-17.648438 14.351563-32 32-32 4.421875 0 8-3.582031 8-8 0-4.414062-3.578125-8-8-8zm-40 21.496094c-3.554687-5.34375-8.152344-9.933594-13.496094-13.496094 5.34375-3.550781 9.933594-8.152344 13.496094-13.496094 3.550782 5.34375 8.148438 9.9375 13.492188 13.496094-5.34375 3.554688-9.941406 8.152344-13.492188 13.496094zm0 0"/><path d="m176.003906 64c17.644532 0 32-14.351562 32-32s-14.355468-32-32-32c-17.648437 0-32 14.351562-32 32s14.351563 32 32 32zm0-48c8.820313 0 16 7.175781 16 16s-7.179687 16-16 16c-8.824218 0-16-7.175781-16-16s7.175782-16 16-16zm0 0"/><path d="m72.003906 96c26.46875 0 48-21.527344 48-48s-21.53125-48-48-48c-26.472656 0-48 21.527344-48 48s21.527344 48 48 48zm0-80c17.644532 0 32 14.351562 32 32s-14.355468 32-32 32c-17.648437 0-32-14.351562-32-32s14.351563-32 32-32zm0 0"/><path d="m464.003906 264c-17.648437 0-32 14.351562-32 32s14.351563 32 32 32c17.644532 0 32-14.351562 32-32s-14.355468-32-32-32zm0 48c-8.824218 0-16-7.175781-16-16s7.175782-16 16-16c8.820313 0 16 7.175781 16 16s-7.179687 16-16 16zm0 0"/><path d="m440.003906 352c-30.875 0-56 25.121094-56 56 0 30.882812 25.125 56 56 56 30.871094 0 56-25.117188 56-56 0-30.878906-25.128906-56-56-56zm0 96c-22.058594 0-40-17.941406-40-40 0-22.054688 17.941406-40 40-40 22.054688 0 40 17.945312 40 40 0 22.058594-17.945312 40-40 40zm0 0"/></svg>